<svg width="20" height="20" viewBox="0 0 20 20" fill="none" xmlns="http://www.w3.org/2000/svg"><path d="M15.226 1.35305 14.8777.282251C14.8486.19972 14.7946.128252 14.7231.0776997 14.6516.0271473 14.5662.0 14.4786.0s-.173.0271473-.2445.0776997C14.1626.128252 14.1085.19972 14.0794.282251L13.7311 1.35305c-.1061.32326-.2857.6176-.5245.86002C12.9677 2.45549 12.6759 2.63941 12.3541 2.75044l-1.0716.34801C11.1999 3.12757 11.1284 3.18157 11.0778 3.25301 11.0272 3.32445 11 3.40981 11 3.49733 11 3.58484 11.0272 3.6702 11.0778 3.74164S11.1999 3.86708 11.2825 3.8962l1.0716.34801C12.6292 4.33588 12.883 4.48064 13.1014 4.66973 13.1421 4.70496 13.1815 4.74173 13.2197 4.77999 13.4202 4.98116 13.5796 5.21872 13.6897 5.47932 13.7128 5.53422 13.7338 5.59014 13.7525 5.64696l.3483 1.07079C14.1271 6.79215 14.1736 6.85755 14.2349 6.90675 14.2416 6.91213 14.2484 6.91732 14.2555 6.92231 14.327 6.97286 14.4124 7.00001 14.5 7.00001S14.673 6.97286 14.7445 6.92231C14.816 6.87175 14.87 6.80029 14.8992 6.71775l.3483-1.07079C15.3558 5.32141 15.5385 5.0256 15.7813 4.78302 16.0241 4.54044 16.3201 4.35778 16.6459 4.24956l1.0716-.34801C17.8001 3.87244 17.8716 3.81844 17.9222 3.747S18 3.5902 18 3.50268C18 3.41516 17.9728 3.3298 17.9222 3.25836S17.8001 3.13292 17.7175 3.10381L17.6961 3.09845l-1.0716-.34801C16.2987 2.64223 16.0026 2.45957 15.7599 2.21699 15.5171 1.97441 15.3343 1.67859 15.226 1.35305zm3.7915 6.61156L19.7829 8.21319 19.7982 8.21701C19.8572 8.23781 19.9083 8.27638 19.9445 8.32741 19.9806 8.37844 20 8.43941 20 8.50192S19.9806 8.62541 19.9445 8.67643C19.9083 8.72746 19.8572 8.76603 19.7982 8.78683l-.7654.24858C18.8001 9.11271 18.5886 9.24317 18.4152 9.41645 18.2418 9.58972 18.1113 9.80101 18.0339 10.0335L17.7851 10.7984C17.7643 10.8574 17.7257 10.9084 17.6746 10.9445 17.6236 10.9806 17.5626 11 17.5 11S17.3764 10.9806 17.3254 10.9445C17.2743 10.9084 17.2357 10.8574 17.2149 10.7984L16.9661 10.0335C16.8893 9.80031 16.7589 9.58824 16.5855 9.41428 16.412 9.24032 16.2003 9.10926 15.9672 9.03158L15.2018 8.78301C15.1428 8.76221 15.0917 8.72364 15.0555 8.67261 15.0194 8.62158 15 8.56061 15 8.4981 15 8.43558 15.0194 8.37461 15.0555 8.32358 15.0917 8.27255 15.1428 8.23398 15.2018 8.21319l.7654-.24858C16.1971 7.8853 16.4055 7.75392 16.5761 7.58077 16.7467 7.40762 16.875 7.19737 16.9508 6.96647L17.1996 6.20161C17.2204 6.14266 17.259 6.09161 17.31 6.05551 17.3611 6.0194 17.4221 6.00001 17.4847 6.00001S17.6083 6.0194 17.6593 6.05551C17.7104 6.09161 17.749 6.14266 17.7698 6.20161L18.0186 6.96647C18.0959 7.199 18.2265 7.4103 18.3999 7.58357 18.5733 7.75684 18.7848 7.88731 19.0175 7.96461zM10.0002 7C8.34333 7 7.00018 8.34315 7.00018 10c0 1.6569 1.34315 3 3.00002 3 1.6568.0 3-1.3431 3-3 0-1.65685-1.3432-3-3-3zM11 2.15002 11.4066 2H8.12412C7.55707 2 7.03849 2.31977 6.78386 2.82643L6.19437 3.9994H4.50488c-1.38071.0-2.5 1.11928-2.5 2.5V14.5c0 1.3807 1.11929 2.5 2.5 2.5H15.5049c1.3807.0 2.5-1.1193 2.5-2.5V11.8975C17.8461 11.9651 17.6745 12.0004 17.5 12.0004 17.231 12.0004 16.9688 11.9164 16.75 11.76 16.5237 11.5989 16.3526 11.3719 16.26 11.11L16.02 10.35C15.9917 10.2636 15.9438 10.1849 15.88 10.12 15.8155 10.0607 15.741 10.0133 15.66 9.98002L14.87 9.73002C14.6155 9.63885 14.3954 9.47119 14.24 9.25002 14.0819 9.03208 13.9978 8.76924 14 8.50002 13.9646 8.2891 13.9818 8.07271 14.05 7.87002 13.8911 7.82909 13.7417 7.75778 13.61 7.66002 13.3991 7.48636 13.2399 7.25803 13.15 7.00002l-.33-1.13C12.7606 5.72671 12.672 5.59731 12.56 5.49002L12.5 5.43002c-.1136-.1068-.2506-.18556-.4-.23l-1.1-.36C10.713 4.75118 10.4616 4.57359 10.2819 4.3328c-.1797-.24078-.2784-.53236-.2819-.83278C10.0072 3.20283 10.1087 2.91563 10.29 2.68002 10.4609 2.42905 10.7108 2.24248 11 2.15002zM6.00018 10c0-2.20914 1.79086-4 4.00002-4 2.2091.0 4 1.79086 4 4 0 2.2091-1.7909 4-4 4-2.20916.0-4.00002-1.7909-4.00002-4z" fill="#212121"/></svg>